<svg version="1.1" id="Layer_1" xmlns="http://www.w3.org/2000/svg" xmlns:xlink="http://www.w3.org/1999/xlink" x="0px" y="0px"
	 viewBox="0 0 48 48" style="enable-background:new 0 0 48 48;" xml:space="preserve">
<style type="text/css">
	.st0{fill:#FFFFFF;}
</style>
<g>
	<path class="st0" d="M26.3,6.9c-1.1-0.5-2.4-0.4-3.3,0.4L13,15.4l-5.2,0.5c-2.1,0.2-3.8,2-3.8,4.2v7.8c0,2.1,1.6,4,3.8,4.2l5.2,0.5
		l9.9,8.1c0.6,0.5,1.3,0.7,2,0.7c0.5,0,0.9-0.1,1.3-0.3c1.1-0.5,1.8-1.6,1.8-2.8V9.8C28.1,8.5,27.3,7.4,26.3,6.9z M24.4,37.1
		L14.5,29l-6.4-0.6c-0.3,0-0.5-0.3-0.5-0.5V20c0-0.3,0.2-0.5,0.5-0.5l6.4-0.6l9.9-8.1V37.1z"/>
	<path class="st0" d="M34.8,14.5c-0.3-0.4-0.8-0.4-1.2-0.1l-1.4,1.3c-0.3,0.3-0.3,0.8-0.1,1.1c1.6,2,2.5,4.5,2.5,7.2
		s-0.9,5.2-2.5,7.2c-0.3,0.3-0.2,0.8,0.1,1.1l1.4,1.3c0.3,0.3,0.9,0.3,1.2-0.1c2.1-2.6,3.3-5.9,3.3-9.5
		C38.2,20.4,36.9,17.1,34.8,14.5z"/>
	<path class="st0" d="M39.1,10.5c-0.3-0.3-0.8-0.4-1.1-0.1l-1.4,1.3c-0.3,0.3-0.3,0.8-0.1,1.1c2.5,3,4,6.9,4,11.1S39,32,36.5,35
		c-0.3,0.3-0.3,0.8,0.1,1.1l1.4,1.3c0.3,0.3,0.8,0.3,1.1-0.1C42.2,33.7,44,29,44,23.9C44,18.9,42.1,14.2,39.1,10.5z"/>
</g>
</svg>
