<svg version="1.1" id="Layer_1" xmlns="http://www.w3.org/2000/svg" xmlns:xlink="http://www.w3.org/1999/xlink" x="0px" y="0px"
	 viewBox="0 0 48 48" style="enable-background:new 0 0 48 48;" xml:space="preserve">
<style type="text/css">
	.st0{fill:#FFFFFF;}
</style>
<g>
	<g>
		<path class="st0" d="M26.3,6.9c-1.1-0.5-2.4-0.4-3.3,0.4L13,15.4l-5.2,0.5c-2.1,0.2-3.8,2-3.8,4.2v7.8c0,2.1,1.6,4,3.8,4.2
			l5.2,0.5l9.9,8.1c0.6,0.5,1.3,0.7,2,0.7c0.5,0,0.9-0.1,1.3-0.3c1.1-0.5,1.8-1.6,1.8-2.8V9.8C28.1,8.5,27.3,7.4,26.3,6.9z
			 M24.4,37.1L14.5,29l-6.4-0.6c-0.3,0-0.5-0.3-0.5-0.5V20c0-0.3,0.2-0.5,0.5-0.5l6.4-0.6l9.9-8.1V37.1z"/>
	</g>
	<path class="st0" d="M40.4,24l3.1-3.1c0.2-0.2,0.2-0.5,0-0.7l-1.9-1.9c-0.2-0.2-0.5-0.2-0.7,0l-3.1,3.1l-3.1-3.1
		c-0.2-0.2-0.5-0.2-0.7,0l-1.9,1.9c-0.2,0.2-0.2,0.5,0,0.7l3.1,3.1l-3.1,3.1c-0.2,0.2-0.2,0.5,0,0.7l1.9,1.9c0.2,0.2,0.5,0.2,0.7,0
		l3.1-3.1l3.1,3.1c0.2,0.2,0.5,0.2,0.7,0l1.9-1.9c0.2-0.2,0.2-0.5,0-0.7L40.4,24z"/>
</g>
</svg>
